<?xml version="1.0" encoding="utf-8" standalone="no"?>
<!DOCTYPE svg PUBLIC "-//W3C//DTD SVG 1.1//EN"
  "http://www.w3.org/Graphics/SVG/1.1/DTD/svg11.dtd">
<svg xmlns:xlink="http://www.w3.org/1999/xlink" width="442.901719pt" height="327.831562pt" viewBox="0 0 442.901719 327.831562" xmlns="http://www.w3.org/2000/svg" version="1.1">
 <metadata>
  <rdf:RDF xmlns:dc="http://purl.org/dc/elements/1.1/" xmlns:cc="http://creativecommons.org/ns#" xmlns:rdf="http://www.w3.org/1999/02/22-rdf-syntax-ns#">
   <cc:Work>
    <dc:type rdf:resource="http://purl.org/dc/dcmitype/StillImage"/>
    <dc:date>2024-05-23T19:00:56.502370</dc:date>
    <dc:format>image/svg+xml</dc:format>
    <dc:creator>
     <cc:Agent>
      <dc:title>Matplotlib v3.7.2, https://matplotlib.org/</dc:title>
     </cc:Agent>
    </dc:creator>
   </cc:Work>
  </rdf:RDF>
 </metadata>
 <defs>
  <style type="text/css">*{stroke-linejoin: round; stroke-linecap: butt}</style>
 </defs>
 <g id="figure_1">
  <g id="patch_1">
   <path d="M 0 327.831562 
L 442.901719 327.831562 
L 442.901719 0 
L 0 0 
z
" style="fill: #ffffff"/>
  </g>
  <g id="axes_1">
   <g id="patch_2">
    <path d="M 83.461719 280.597187 
L 435.701719 280.597187 
L 435.701719 26.877187 
L 83.461719 26.877187 
z
" style="fill: #ffffff"/>
   </g>
   <g id="matplotlib.axis_1">
    <g id="xtick_1">
     <g id="line2d_1">
      <path d="M 97.92568 280.597187 
L 97.92568 26.877187 
" clip-path="url(#p2b4a4635f1)" style="fill: none; stroke: #b0b0b0; stroke-width: 0.8; stroke-linecap: square"/>
     </g>
     <g id="line2d_2">
      <defs>
       <path id="m95ddcb762d" d="M 0 0 
L 0 3.5 
" style="stroke: #000000; stroke-width: 0.8"/>
      </defs>
      <g>
       <use xlink:href="#m95ddcb762d" x="97.92568" y="280.597187" style="stroke: #000000; stroke-width: 0.8"/>
      </g>
     </g>
     <g id="text_1">
      <!-- 0.0 -->
      <g transform="translate(85.998336 298.994844) scale(0.15 -0.15)">
       <defs>
        <path id="DejaVuSans-30" d="M 2034 4250 
Q 1547 4250 1301 3770 
Q 1056 3291 1056 2328 
Q 1056 1369 1301 889 
Q 1547 409 2034 409 
Q 2525 409 2770 889 
Q 3016 1369 3016 2328 
Q 3016 3291 2770 3770 
Q 2525 4250 2034 4250 
z
M 2034 4750 
Q 2819 4750 3233 4129 
Q 3647 3509 3647 2328 
Q 3647 1150 3233 529 
Q 2819 -91 2034 -91 
Q 1250 -91 836 529 
Q 422 1150 422 2328 
Q 422 3509 836 4129 
Q 1250 4750 2034 4750 
z
" transform="scale(0.015625)"/>
        <path id="DejaVuSans-2e" d="M 684 794 
L 1344 794 
L 1344 0 
L 684 0 
L 684 794 
z
" transform="scale(0.015625)"/>
       </defs>
       <use xlink:href="#DejaVuSans-30"/>
       <use xlink:href="#DejaVuSans-2e" x="63.623047"/>
       <use xlink:href="#DejaVuSans-30" x="95.410156"/>
      </g>
     </g>
    </g>
    <g id="xtick_2">
     <g id="line2d_3">
      <path d="M 162.381836 280.597187 
L 162.381836 26.877187 
" clip-path="url(#p2b4a4635f1)" style="fill: none; stroke: #b0b0b0; stroke-width: 0.8; stroke-linecap: square"/>
     </g>
     <g id="line2d_4">
      <g>
       <use xlink:href="#m95ddcb762d" x="162.381836" y="280.597187" style="stroke: #000000; stroke-width: 0.8"/>
      </g>
     </g>
     <g id="text_2">
      <!-- 0.2 -->
      <g transform="translate(150.454492 298.994844) scale(0.15 -0.15)">
       <defs>
        <path id="DejaVuSans-32" d="M 1228 531 
L 3431 531 
L 3431 0 
L 469 0 
L 469 531 
Q 828 903 1448 1529 
Q 2069 2156 2228 2338 
Q 2531 2678 2651 2914 
Q 2772 3150 2772 3378 
Q 2772 3750 2511 3984 
Q 2250 4219 1831 4219 
Q 1534 4219 1204 4116 
Q 875 4013 500 3803 
L 500 4441 
Q 881 4594 1212 4672 
Q 1544 4750 1819 4750 
Q 2544 4750 2975 4387 
Q 3406 4025 3406 3419 
Q 3406 3131 3298 2873 
Q 3191 2616 2906 2266 
Q 2828 2175 2409 1742 
Q 1991 1309 1228 531 
z
" transform="scale(0.015625)"/>
       </defs>
       <use xlink:href="#DejaVuSans-30"/>
       <use xlink:href="#DejaVuSans-2e" x="63.623047"/>
       <use xlink:href="#DejaVuSans-32" x="95.410156"/>
      </g>
     </g>
    </g>
    <g id="xtick_3">
     <g id="line2d_5">
      <path d="M 226.837992 280.597187 
L 226.837992 26.877187 
" clip-path="url(#p2b4a4635f1)" style="fill: none; stroke: #b0b0b0; stroke-width: 0.8; stroke-linecap: square"/>
     </g>
     <g id="line2d_6">
      <g>
       <use xlink:href="#m95ddcb762d" x="226.837992" y="280.597187" style="stroke: #000000; stroke-width: 0.8"/>
      </g>
     </g>
     <g id="text_3">
      <!-- 0.4 -->
      <g transform="translate(214.910648 298.994844) scale(0.15 -0.15)">
       <defs>
        <path id="DejaVuSans-34" d="M 2419 4116 
L 825 1625 
L 2419 1625 
L 2419 4116 
z
M 2253 4666 
L 3047 4666 
L 3047 1625 
L 3713 1625 
L 3713 1100 
L 3047 1100 
L 3047 0 
L 2419 0 
L 2419 1100 
L 313 1100 
L 313 1709 
L 2253 4666 
z
" transform="scale(0.015625)"/>
       </defs>
       <use xlink:href="#DejaVuSans-30"/>
       <use xlink:href="#DejaVuSans-2e" x="63.623047"/>
       <use xlink:href="#DejaVuSans-34" x="95.410156"/>
      </g>
     </g>
    </g>
    <g id="xtick_4">
     <g id="line2d_7">
      <path d="M 291.294147 280.597187 
L 291.294147 26.877187 
" clip-path="url(#p2b4a4635f1)" style="fill: none; stroke: #b0b0b0; stroke-width: 0.8; stroke-linecap: square"/>
     </g>
     <g id="line2d_8">
      <g>
       <use xlink:href="#m95ddcb762d" x="291.294147" y="280.597187" style="stroke: #000000; stroke-width: 0.8"/>
      </g>
     </g>
     <g id="text_4">
      <!-- 0.6 -->
      <g transform="translate(279.366804 298.994844) scale(0.15 -0.15)">
       <defs>
        <path id="DejaVuSans-36" d="M 2113 2584 
Q 1688 2584 1439 2293 
Q 1191 2003 1191 1497 
Q 1191 994 1439 701 
Q 1688 409 2113 409 
Q 2538 409 2786 701 
Q 3034 994 3034 1497 
Q 3034 2003 2786 2293 
Q 2538 2584 2113 2584 
z
M 3366 4563 
L 3366 3988 
Q 3128 4100 2886 4159 
Q 2644 4219 2406 4219 
Q 1781 4219 1451 3797 
Q 1122 3375 1075 2522 
Q 1259 2794 1537 2939 
Q 1816 3084 2150 3084 
Q 2853 3084 3261 2657 
Q 3669 2231 3669 1497 
Q 3669 778 3244 343 
Q 2819 -91 2113 -91 
Q 1303 -91 875 529 
Q 447 1150 447 2328 
Q 447 3434 972 4092 
Q 1497 4750 2381 4750 
Q 2619 4750 2861 4703 
Q 3103 4656 3366 4563 
z
" transform="scale(0.015625)"/>
       </defs>
       <use xlink:href="#DejaVuSans-30"/>
       <use xlink:href="#DejaVuSans-2e" x="63.623047"/>
       <use xlink:href="#DejaVuSans-36" x="95.410156"/>
      </g>
     </g>
    </g>
    <g id="xtick_5">
     <g id="line2d_9">
      <path d="M 355.750303 280.597187 
L 355.750303 26.877187 
" clip-path="url(#p2b4a4635f1)" style="fill: none; stroke: #b0b0b0; stroke-width: 0.8; stroke-linecap: square"/>
     </g>
     <g id="line2d_10">
      <g>
       <use xlink:href="#m95ddcb762d" x="355.750303" y="280.597187" style="stroke: #000000; stroke-width: 0.8"/>
      </g>
     </g>
     <g id="text_5">
      <!-- 0.8 -->
      <g transform="translate(343.822959 298.994844) scale(0.15 -0.15)">
       <defs>
        <path id="DejaVuSans-38" d="M 2034 2216 
Q 1584 2216 1326 1975 
Q 1069 1734 1069 1313 
Q 1069 891 1326 650 
Q 1584 409 2034 409 
Q 2484 409 2743 651 
Q 3003 894 3003 1313 
Q 3003 1734 2745 1975 
Q 2488 2216 2034 2216 
z
M 1403 2484 
Q 997 2584 770 2862 
Q 544 3141 544 3541 
Q 544 4100 942 4425 
Q 1341 4750 2034 4750 
Q 2731 4750 3128 4425 
Q 3525 4100 3525 3541 
Q 3525 3141 3298 2862 
Q 3072 2584 2669 2484 
Q 3125 2378 3379 2068 
Q 3634 1759 3634 1313 
Q 3634 634 3220 271 
Q 2806 -91 2034 -91 
Q 1263 -91 848 271 
Q 434 634 434 1313 
Q 434 1759 690 2068 
Q 947 2378 1403 2484 
z
M 1172 3481 
Q 1172 3119 1398 2916 
Q 1625 2713 2034 2713 
Q 2441 2713 2670 2916 
Q 2900 3119 2900 3481 
Q 2900 3844 2670 4047 
Q 2441 4250 2034 4250 
Q 1625 4250 1398 4047 
Q 1172 3844 1172 3481 
z
" transform="scale(0.015625)"/>
       </defs>
       <use xlink:href="#DejaVuSans-30"/>
       <use xlink:href="#DejaVuSans-2e" x="63.623047"/>
       <use xlink:href="#DejaVuSans-38" x="95.410156"/>
      </g>
     </g>
    </g>
    <g id="xtick_6">
     <g id="line2d_11">
      <path d="M 420.206459 280.597187 
L 420.206459 26.877187 
" clip-path="url(#p2b4a4635f1)" style="fill: none; stroke: #b0b0b0; stroke-width: 0.8; stroke-linecap: square"/>
     </g>
     <g id="line2d_12">
      <g>
       <use xlink:href="#m95ddcb762d" x="420.206459" y="280.597187" style="stroke: #000000; stroke-width: 0.8"/>
      </g>
     </g>
     <g id="text_6">
      <!-- 1.0 -->
      <g transform="translate(408.279115 298.994844) scale(0.15 -0.15)">
       <defs>
        <path id="DejaVuSans-31" d="M 794 531 
L 1825 531 
L 1825 4091 
L 703 3866 
L 703 4441 
L 1819 4666 
L 2450 4666 
L 2450 531 
L 3481 531 
L 3481 0 
L 794 0 
L 794 531 
z
" transform="scale(0.015625)"/>
       </defs>
       <use xlink:href="#DejaVuSans-31"/>
       <use xlink:href="#DejaVuSans-2e" x="63.623047"/>
       <use xlink:href="#DejaVuSans-30" x="95.410156"/>
      </g>
     </g>
    </g>
    <g id="text_7">
     <!-- 时间步 -->
     <g transform="translate(246.078203 317.512031) scale(0.15 -0.15)">
      <defs>
       <path id="DejaVuSans-65f6" d="M 319 -1131 
L 319 4513 
L 3519 4513 
L 3519 -1131 
L 319 -1131 
z
M 678 -775 
L 3163 -775 
L 3163 4153 
L 678 4153 
L 678 -775 
z
" transform="scale(0.015625)"/>
       <path id="DejaVuSans-95f4" d="M 319 -1131 
L 319 4513 
L 3519 4513 
L 3519 -1131 
L 319 -1131 
z
M 678 -775 
L 3163 -775 
L 3163 4153 
L 678 4153 
L 678 -775 
z
" transform="scale(0.015625)"/>
       <path id="DejaVuSans-6b65" d="M 319 -1131 
L 319 4513 
L 3519 4513 
L 3519 -1131 
L 319 -1131 
z
M 678 -775 
L 3163 -775 
L 3163 4153 
L 678 4153 
L 678 -775 
z
" transform="scale(0.015625)"/>
      </defs>
      <use xlink:href="#DejaVuSans-65f6"/>
      <use xlink:href="#DejaVuSans-95f4" x="60.009766"/>
      <use xlink:href="#DejaVuSans-6b65" x="120.019531"/>
     </g>
    </g>
    <g id="text_8">
     <!-- 1e6 -->
     <g transform="translate(407.384531 316.512031) scale(0.15 -0.15)">
      <defs>
       <path id="DejaVuSans-65" d="M 3597 1894 
L 3597 1613 
L 953 1613 
Q 991 1019 1311 708 
Q 1631 397 2203 397 
Q 2534 397 2845 478 
Q 3156 559 3463 722 
L 3463 178 
Q 3153 47 2828 -22 
Q 2503 -91 2169 -91 
Q 1331 -91 842 396 
Q 353 884 353 1716 
Q 353 2575 817 3079 
Q 1281 3584 2069 3584 
Q 2775 3584 3186 3129 
Q 3597 2675 3597 1894 
z
M 3022 2063 
Q 3016 2534 2758 2815 
Q 2500 3097 2075 3097 
Q 1594 3097 1305 2825 
Q 1016 2553 972 2059 
L 3022 2063 
z
" transform="scale(0.015625)"/>
      </defs>
      <use xlink:href="#DejaVuSans-31"/>
      <use xlink:href="#DejaVuSans-65" x="63.623047"/>
      <use xlink:href="#DejaVuSans-36" x="125.146484"/>
     </g>
    </g>
   </g>
   <g id="matplotlib.axis_2">
    <g id="ytick_1">
     <g id="line2d_13">
      <path d="M 83.461719 262.800773 
L 435.701719 262.800773 
" clip-path="url(#p2b4a4635f1)" style="fill: none; stroke: #b0b0b0; stroke-width: 0.8; stroke-linecap: square"/>
     </g>
     <g id="line2d_14">
      <defs>
       <path id="m902164a87d" d="M 0 0 
L -3.5 0 
" style="stroke: #000000; stroke-width: 0.8"/>
      </defs>
      <g>
       <use xlink:href="#m902164a87d" x="83.461719" y="262.800773" style="stroke: #000000; stroke-width: 0.8"/>
      </g>
     </g>
     <g id="text_9">
      <!-- −1500 -->
      <g transform="translate(25.717188 268.499601) scale(0.15 -0.15)">
       <defs>
        <path id="DejaVuSans-2212" d="M 678 2272 
L 4684 2272 
L 4684 1741 
L 678 1741 
L 678 2272 
z
" transform="scale(0.015625)"/>
        <path id="DejaVuSans-35" d="M 691 4666 
L 3169 4666 
L 3169 4134 
L 1269 4134 
L 1269 2991 
Q 1406 3038 1543 3061 
Q 1681 3084 1819 3084 
Q 2600 3084 3056 2656 
Q 3513 2228 3513 1497 
Q 3513 744 3044 326 
Q 2575 -91 1722 -91 
Q 1428 -91 1123 -41 
Q 819 9 494 109 
L 494 744 
Q 775 591 1075 516 
Q 1375 441 1709 441 
Q 2250 441 2565 725 
Q 2881 1009 2881 1497 
Q 2881 1984 2565 2268 
Q 2250 2553 1709 2553 
Q 1456 2553 1204 2497 
Q 953 2441 691 2322 
L 691 4666 
z
" transform="scale(0.015625)"/>
       </defs>
       <use xlink:href="#DejaVuSans-2212"/>
       <use xlink:href="#DejaVuSans-31" x="83.789062"/>
       <use xlink:href="#DejaVuSans-35" x="147.412109"/>
       <use xlink:href="#DejaVuSans-30" x="211.035156"/>
       <use xlink:href="#DejaVuSans-30" x="274.658203"/>
      </g>
     </g>
    </g>
    <g id="ytick_2">
     <g id="line2d_15">
      <path d="M 83.461719 216.131712 
L 435.701719 216.131712 
" clip-path="url(#p2b4a4635f1)" style="fill: none; stroke: #b0b0b0; stroke-width: 0.8; stroke-linecap: square"/>
     </g>
     <g id="line2d_16">
      <g>
       <use xlink:href="#m902164a87d" x="83.461719" y="216.131712" style="stroke: #000000; stroke-width: 0.8"/>
      </g>
     </g>
     <g id="text_10">
      <!-- −1000 -->
      <g transform="translate(25.717188 221.83054) scale(0.15 -0.15)">
       <use xlink:href="#DejaVuSans-2212"/>
       <use xlink:href="#DejaVuSans-31" x="83.789062"/>
       <use xlink:href="#DejaVuSans-30" x="147.412109"/>
       <use xlink:href="#DejaVuSans-30" x="211.035156"/>
       <use xlink:href="#DejaVuSans-30" x="274.658203"/>
      </g>
     </g>
    </g>
    <g id="ytick_3">
     <g id="line2d_17">
      <path d="M 83.461719 169.462651 
L 435.701719 169.462651 
" clip-path="url(#p2b4a4635f1)" style="fill: none; stroke: #b0b0b0; stroke-width: 0.8; stroke-linecap: square"/>
     </g>
     <g id="line2d_18">
      <g>
       <use xlink:href="#m902164a87d" x="83.461719" y="169.462651" style="stroke: #000000; stroke-width: 0.8"/>
      </g>
     </g>
     <g id="text_11">
      <!-- −500 -->
      <g transform="translate(35.260938 175.161479) scale(0.15 -0.15)">
       <use xlink:href="#DejaVuSans-2212"/>
       <use xlink:href="#DejaVuSans-35" x="83.789062"/>
       <use xlink:href="#DejaVuSans-30" x="147.412109"/>
       <use xlink:href="#DejaVuSans-30" x="211.035156"/>
      </g>
     </g>
    </g>
    <g id="ytick_4">
     <g id="line2d_19">
      <path d="M 83.461719 122.79359 
L 435.701719 122.79359 
" clip-path="url(#p2b4a4635f1)" style="fill: none; stroke: #b0b0b0; stroke-width: 0.8; stroke-linecap: square"/>
     </g>
     <g id="line2d_20">
      <g>
       <use xlink:href="#m902164a87d" x="83.461719" y="122.79359" style="stroke: #000000; stroke-width: 0.8"/>
      </g>
     </g>
     <g id="text_12">
      <!-- 0 -->
      <g transform="translate(66.917969 128.492418) scale(0.15 -0.15)">
       <use xlink:href="#DejaVuSans-30"/>
      </g>
     </g>
    </g>
    <g id="ytick_5">
     <g id="line2d_21">
      <path d="M 83.461719 76.124529 
L 435.701719 76.124529 
" clip-path="url(#p2b4a4635f1)" style="fill: none; stroke: #b0b0b0; stroke-width: 0.8; stroke-linecap: square"/>
     </g>
     <g id="line2d_22">
      <g>
       <use xlink:href="#m902164a87d" x="83.461719" y="76.124529" style="stroke: #000000; stroke-width: 0.8"/>
      </g>
     </g>
     <g id="text_13">
      <!-- 500 -->
      <g transform="translate(47.830469 81.823357) scale(0.15 -0.15)">
       <use xlink:href="#DejaVuSans-35"/>
       <use xlink:href="#DejaVuSans-30" x="63.623047"/>
       <use xlink:href="#DejaVuSans-30" x="127.246094"/>
      </g>
     </g>
    </g>
    <g id="ytick_6">
     <g id="line2d_23">
      <path d="M 83.461719 29.455468 
L 435.701719 29.455468 
" clip-path="url(#p2b4a4635f1)" style="fill: none; stroke: #b0b0b0; stroke-width: 0.8; stroke-linecap: square"/>
     </g>
     <g id="line2d_24">
      <g>
       <use xlink:href="#m902164a87d" x="83.461719" y="29.455468" style="stroke: #000000; stroke-width: 0.8"/>
      </g>
     </g>
     <g id="text_14">
      <!-- 1000 -->
      <g transform="translate(38.286719 35.154297) scale(0.15 -0.15)">
       <use xlink:href="#DejaVuSans-31"/>
       <use xlink:href="#DejaVuSans-30" x="63.623047"/>
       <use xlink:href="#DejaVuSans-30" x="127.246094"/>
       <use xlink:href="#DejaVuSans-30" x="190.869141"/>
      </g>
     </g>
    </g>
    <g id="text_15">
     <!-- 阶段平均奖励 -->
     <g transform="translate(18.597656 180.744219) rotate(-90) scale(0.15 -0.15)">
      <defs>
       <path id="DejaVuSans-9636" d="M 319 -1131 
L 319 4513 
L 3519 4513 
L 3519 -1131 
L 319 -1131 
z
M 678 -775 
L 3163 -775 
L 3163 4153 
L 678 4153 
L 678 -775 
z
" transform="scale(0.015625)"/>
       <path id="DejaVuSans-6bb5" d="M 319 -1131 
L 319 4513 
L 3519 4513 
L 3519 -1131 
L 319 -1131 
z
M 678 -775 
L 3163 -775 
L 3163 4153 
L 678 4153 
L 678 -775 
z
" transform="scale(0.015625)"/>
       <path id="DejaVuSans-5e73" d="M 319 -1131 
L 319 4513 
L 3519 4513 
L 3519 -1131 
L 319 -1131 
z
M 678 -775 
L 3163 -775 
L 3163 4153 
L 678 4153 
L 678 -775 
z
" transform="scale(0.015625)"/>
       <path id="DejaVuSans-5747" d="M 319 -1131 
L 319 4513 
L 3519 4513 
L 3519 -1131 
L 319 -1131 
z
M 678 -775 
L 3163 -775 
L 3163 4153 
L 678 4153 
L 678 -775 
z
" transform="scale(0.015625)"/>
       <path id="DejaVuSans-5956" d="M 319 -1131 
L 319 4513 
L 3519 4513 
L 3519 -1131 
L 319 -1131 
z
M 678 -775 
L 3163 -775 
L 3163 4153 
L 678 4153 
L 678 -775 
z
" transform="scale(0.015625)"/>
       <path id="DejaVuSans-52b1" d="M 319 -1131 
L 319 4513 
L 3519 4513 
L 3519 -1131 
L 319 -1131 
z
M 678 -775 
L 3163 -775 
L 3163 4153 
L 678 4153 
L 678 -775 
z
" transform="scale(0.015625)"/>
      </defs>
      <use xlink:href="#DejaVuSans-9636"/>
      <use xlink:href="#DejaVuSans-6bb5" x="60.009766"/>
      <use xlink:href="#DejaVuSans-5e73" x="120.019531"/>
      <use xlink:href="#DejaVuSans-5747" x="180.029297"/>
      <use xlink:href="#DejaVuSans-5956" x="240.039062"/>
      <use xlink:href="#DejaVuSans-52b1" x="300.048828"/>
     </g>
    </g>
   </g>
   <g id="line2d_25">
    <path d="M 99.472628 179.902774 
L 100.246102 179.570366 
L 101.793049 178.698734 
L 102.566523 179.159023 
L 104.113471 180.399197 
L 104.886945 180.713406 
L 105.660419 180.763497 
L 107.207367 180.279208 
L 108.754314 180.603647 
L 109.527788 181.093144 
L 110.301262 181.365799 
L 111.84821 181.433323 
L 114.168631 180.135456 
L 114.942105 179.85413 
L 118.036001 179.269995 
L 118.809475 178.794923 
L 120.356422 177.523032 
L 121.129896 177.121923 
L 121.90337 176.871638 
L 122.676844 177.034661 
L 123.450318 177.394022 
L 124.997266 178.80117 
L 125.770739 179.251802 
L 126.544213 179.568342 
L 127.317687 179.460331 
L 128.864635 179.582891 
L 129.638109 179.762916 
L 130.411583 180.422526 
L 131.185056 180.436162 
L 131.95853 180.235684 
L 132.732004 179.866775 
L 133.505478 179.154954 
L 135.052426 178.009256 
L 137.372847 178.355307 
L 138.146321 178.189855 
L 138.919795 178.189805 
L 139.693269 177.903055 
L 140.466743 177.931871 
L 142.013691 178.792244 
L 142.787165 179.091162 
L 143.560638 178.926623 
L 145.107586 179.001396 
L 146.654534 177.658263 
L 148.974955 177.574266 
L 149.748429 177.698244 
L 150.521903 177.45787 
L 151.295377 176.732525 
L 152.068851 176.218457 
L 152.842325 176.17128 
L 153.615799 175.802001 
L 154.389273 175.842922 
L 155.93622 175.275825 
L 157.483168 174.895662 
L 159.030116 174.500623 
L 160.577064 173.288682 
L 161.350537 173.243934 
L 162.124011 173.042108 
L 163.670959 172.099133 
L 164.444433 171.532813 
L 167.538328 171.866034 
L 168.311802 171.769977 
L 169.085276 172.379253 
L 170.632224 172.537854 
L 171.405698 172.04956 
L 172.952645 172.356562 
L 174.499593 171.998308 
L 175.273067 171.457438 
L 176.820015 170.917681 
L 177.593489 170.780125 
L 180.687384 167.051246 
L 181.460858 166.495464 
L 182.234332 166.198308 
L 183.007806 166.353017 
L 183.78128 165.988409 
L 184.554753 165.94932 
L 185.328227 165.663489 
L 186.101701 165.657048 
L 186.875175 165.892867 
L 187.648649 166.270848 
L 188.422123 166.934633 
L 189.195597 167.399311 
L 189.969071 168.029219 
L 190.742544 168.829222 
L 191.516018 169.212911 
L 193.83644 169.744671 
L 194.609914 170.224626 
L 195.383388 170.837861 
L 196.930335 170.604076 
L 199.250757 167.827256 
L 200.024231 167.268639 
L 200.797705 166.954938 
L 202.344652 165.45919 
L 203.118126 165.551071 
L 203.8916 165.110952 
L 204.665074 164.321257 
L 206.212022 163.195685 
L 206.985496 163.120383 
L 207.75897 163.506558 
L 208.532443 164.414316 
L 209.305917 165.571481 
L 210.852865 167.150759 
L 211.626339 168.414512 
L 212.399813 169.137735 
L 213.173287 169.500723 
L 213.94676 170.006645 
L 214.720234 170.070454 
L 215.493708 169.811656 
L 216.267182 169.312469 
L 217.040656 168.181225 
L 217.81413 167.762376 
L 218.587604 166.809214 
L 219.361078 165.600961 
L 220.908025 162.285695 
L 221.681499 161.272549 
L 222.454973 160.699044 
L 223.228447 160.506585 
L 224.001921 160.125363 
L 225.548869 160.241129 
L 226.322342 160.270457 
L 227.86929 159.770278 
L 229.416238 160.00541 
L 230.189712 159.747881 
L 230.963186 159.735077 
L 231.736659 159.592846 
L 233.283607 158.631407 
L 235.604029 157.525342 
L 237.150977 157.670899 
L 237.92445 157.874206 
L 238.697924 158.369638 
L 239.471398 158.472461 
L 240.244872 157.942366 
L 244.112241 154.414593 
L 244.885715 154.340603 
L 245.659189 154.128273 
L 247.206137 153.223506 
L 247.979611 152.225574 
L 248.753085 151.500963 
L 249.526558 151.533098 
L 251.073506 152.159275 
L 251.84698 152.255744 
L 252.620454 152.717078 
L 253.393928 152.650318 
L 254.167402 152.951504 
L 255.714349 152.930506 
L 256.487823 153.493502 
L 257.261297 153.897356 
L 258.034771 154.60751 
L 259.581719 153.384624 
L 260.355193 153.315725 
L 261.128666 153.377928 
L 261.90214 153.110396 
L 262.675614 152.310302 
L 264.222562 151.027774 
L 266.542984 147.612652 
L 267.316457 146.487315 
L 268.863405 145.417933 
L 269.636879 144.470173 
L 271.183827 142.973595 
L 271.957301 142.714596 
L 272.730775 143.374771 
L 273.504248 142.934581 
L 274.277722 142.185317 
L 275.82467 141.336603 
L 276.598144 141.844305 
L 277.371618 142.197308 
L 279.692039 140.386188 
L 282.012461 138.579291 
L 282.785935 138.295053 
L 284.332883 139.024715 
L 285.106356 139.668848 
L 286.653304 138.426889 
L 287.426778 137.724673 
L 288.200252 137.640365 
L 288.973726 137.334067 
L 289.7472 136.522181 
L 290.520674 135.391741 
L 291.294147 133.776262 
L 292.067621 132.740087 
L 292.841095 131.359912 
L 293.614569 130.304033 
L 294.388043 129.72315 
L 295.161517 128.031163 
L 295.934991 126.849478 
L 296.708464 125.938878 
L 297.481938 125.50708 
L 298.255412 125.251028 
L 299.028886 125.459457 
L 299.80236 124.975357 
L 300.575834 125.75318 
L 301.349308 125.683926 
L 302.122782 125.074765 
L 302.896255 124.736561 
L 303.669729 124.055283 
L 304.443203 122.93618 
L 307.537099 120.127425 
L 308.310573 119.189964 
L 309.084046 118.040087 
L 309.85752 117.472812 
L 310.630994 117.956936 
L 311.404468 119.61049 
L 312.177942 121.674031 
L 314.498363 129.556705 
L 315.271837 132.833537 
L 316.045311 135.438138 
L 316.818785 139.254259 
L 318.365733 145.396427 
L 319.139207 149.346885 
L 319.912681 152.54762 
L 320.686154 154.521428 
L 321.459628 155.764154 
L 322.233102 156.532002 
L 323.006576 157.084426 
L 325.326998 160.713371 
L 326.100471 162.133861 
L 326.873945 163.318073 
L 327.647419 163.87051 
L 328.420893 163.992509 
L 329.194367 163.647561 
L 329.967841 163.145915 
L 330.741315 163.104249 
L 332.288262 162.483483 
L 333.061736 161.739803 
L 333.83521 161.312057 
L 336.929106 158.724772 
L 338.476053 157.179066 
L 339.249527 156.158525 
L 340.023001 155.964084 
L 342.343423 154.770643 
L 343.116897 155.046611 
L 345.437318 150.403965 
L 346.984266 145.782633 
L 347.75774 145.14394 
L 348.531214 144.163583 
L 349.304688 141.972556 
L 350.851635 135.617985 
L 353.172057 124.264713 
L 354.719005 118.807244 
L 355.492479 116.153824 
L 356.265952 113.92789 
L 357.8129 108.555183 
L 358.586374 106.73634 
L 359.359848 105.322979 
L 360.133322 104.872004 
L 360.906796 104.848717 
L 361.680269 105.210379 
L 362.453743 105.449058 
L 363.227217 105.405727 
L 364.000691 105.04153 
L 365.547639 104.722914 
L 366.321113 103.922335 
L 367.094587 103.336573 
L 367.86806 103.096701 
L 368.641534 102.686645 
L 369.415008 103.029918 
L 370.188482 102.90423 
L 371.73543 102.282792 
L 372.508904 102.594197 
L 373.282378 102.63963 
L 374.829325 104.38682 
L 377.149747 108.555777 
L 379.470168 114.677325 
L 381.79059 123.649983 
L 382.564064 125.676764 
L 383.337538 127.135405 
L 384.111012 128.278062 
L 385.657959 129.497824 
L 386.431433 130.173162 
L 387.204907 129.600542 
L 387.978381 127.283959 
L 389.525329 123.549574 
L 390.298803 120.879194 
L 391.84575 114.34911 
L 392.619224 112.397617 
L 394.166172 106.907696 
L 395.71312 102.58973 
L 396.486594 101.442383 
L 397.260067 100.68667 
L 398.033541 99.186763 
L 398.807015 98.259301 
L 399.580489 97.768544 
L 400.353963 97.689103 
L 401.127437 98.062599 
L 401.900911 98.303383 
L 402.674385 98.293686 
L 403.447858 98.459244 
L 404.221332 99.220233 
L 405.76828 99.981429 
L 406.541754 100.734705 
L 407.315228 100.646878 
L 408.088702 101.624331 
L 408.862175 102.230473 
L 411.182597 103.001856 
L 411.956071 102.807719 
L 412.729545 102.862866 
L 413.503019 102.70705 
L 414.276493 101.805095 
L 415.049966 102.208599 
L 417.370388 102.302134 
L 418.143862 100.955927 
L 418.917336 99.961207 
L 419.69081 98.75063 
L 419.69081 98.75063 
" clip-path="url(#p2b4a4635f1)" style="fill: none; stroke: #008b8b; stroke-width: 2; stroke-linecap: square"/>
   </g>
   <g id="line2d_26">
    <path d="M 124.326922 240.440026 
L 150.728163 231.122999 
L 177.129404 216.670039 
L 203.530646 199.671379 
L 229.931887 173.731956 
L 256.333128 147.245118 
L 282.73437 121.994718 
L 309.135611 102.118832 
L 335.536853 89.262312 
L 361.938094 77.564127 
L 388.339335 68.987231 
L 414.740577 60.970501 
" clip-path="url(#p2b4a4635f1)" style="fill: none; stroke: #a52a2a; stroke-width: 2; stroke-linecap: square"/>
   </g>
   <g id="line2d_27">
    <path d="M 101.225835 252.502404 
L 102.875913 252.213243 
L 104.52599 251.42408 
L 106.176068 252.462026 
L 107.826146 252.417358 
L 109.476223 251.758506 
L 111.126301 249.457529 
L 114.426456 242.767586 
L 116.076534 238.550869 
L 117.726611 235.378601 
L 119.376689 231.624953 
L 121.026766 228.35728 
L 122.676844 227.406104 
L 124.326922 226.591092 
L 125.976999 226.334377 
L 127.627077 225.379705 
L 129.277154 224.847437 
L 130.927232 224.550735 
L 132.577309 223.151863 
L 134.227387 221.332644 
L 137.527542 216.916722 
L 140.827697 214.185742 
L 142.477775 212.76236 
L 144.127853 212.944256 
L 147.428008 213.821691 
L 149.078085 212.937515 
L 150.728163 211.189136 
L 152.37824 209.610859 
L 155.678396 207.637047 
L 157.328473 208.218476 
L 158.978551 209.69809 
L 160.628628 210.486718 
L 162.278706 210.669027 
L 163.928784 211.159381 
L 165.578861 211.070291 
L 167.228939 209.739741 
L 168.879016 208.028179 
L 170.529094 207.642053 
L 172.179172 208.313881 
L 173.829249 209.15703 
L 175.479327 209.712291 
L 177.129404 210.0671 
L 178.779482 212.073607 
L 180.429559 212.647816 
L 182.079637 212.335939 
L 183.729715 210.483265 
L 185.379792 209.931298 
L 187.02987 209.956473 
L 188.679947 210.282166 
L 190.330025 210.159938 
L 193.63018 210.927459 
L 195.280258 211.58093 
L 200.230491 211.601649 
L 201.880568 210.537764 
L 206.830801 209.74248 
L 208.480878 210.364948 
L 210.130956 210.390452 
L 211.781034 209.610538 
L 213.431111 209.573603 
L 215.081189 208.401795 
L 218.381344 206.554008 
L 220.031422 205.759812 
L 221.681499 206.727471 
L 223.331577 207.523278 
L 224.981654 208.780293 
L 229.931887 213.224754 
L 231.581965 213.045342 
L 233.232042 212.190305 
L 234.88212 210.34179 
L 236.532197 209.052991 
L 238.182275 209.356757 
L 239.832353 209.471907 
L 241.48243 210.654743 
L 243.132508 210.970307 
L 244.782585 210.645374 
L 246.432663 208.260435 
L 248.082741 205.447012 
L 249.732818 204.552052 
L 251.382896 202.791938 
L 253.032973 201.237095 
L 254.683051 201.207324 
L 256.333128 201.718255 
L 257.983206 202.760722 
L 259.633284 202.30041 
L 261.283361 201.073232 
L 262.933439 201.038055 
L 266.233594 201.699698 
L 267.883672 200.309263 
L 269.533749 199.191861 
L 271.183827 201.569659 
L 272.833904 203.063216 
L 274.483982 202.135161 
L 276.13406 201.920961 
L 277.784137 202.66234 
L 279.434215 203.139086 
L 282.73437 201.280761 
L 284.384447 202.245939 
L 286.034525 201.643056 
L 287.684603 200.701065 
L 289.33468 200.328997 
L 292.634835 195.733161 
L 294.284913 194.299858 
L 295.934991 193.797324 
L 297.585068 191.713803 
L 299.235146 188.457314 
L 300.885223 187.139288 
L 302.535301 186.404571 
L 304.185379 186.015426 
L 305.835456 185.173153 
L 307.485534 186.840857 
L 309.135611 189.201458 
L 310.785689 189.585706 
L 312.435766 189.399906 
L 315.735922 188.557048 
L 317.385999 187.130182 
L 319.036077 186.256578 
L 320.686154 189.025558 
L 322.336232 190.848683 
L 323.98631 191.329804 
L 325.636387 193.542139 
L 327.286465 195.975085 
L 328.936542 196.468837 
L 330.58662 196.275938 
L 333.886775 195.085545 
L 335.536853 194.249774 
L 337.18693 192.022424 
L 338.837008 190.686024 
L 340.487085 190.431239 
L 342.137163 191.230424 
L 343.787241 192.159628 
L 345.437318 191.000338 
L 347.087396 190.603306 
L 348.737473 190.006497 
L 350.387551 188.569873 
L 352.037629 185.778714 
L 353.687706 184.060993 
L 355.337784 184.036434 
L 356.987861 185.107616 
L 358.637939 186.023234 
L 360.288017 187.62152 
L 361.938094 188.701787 
L 363.588172 188.086914 
L 366.888327 188.404161 
L 368.538404 186.940805 
L 370.188482 185.901678 
L 371.83856 184.46612 
L 373.488637 185.231445 
L 375.138715 184.497496 
L 376.788792 184.773242 
L 378.43887 186.230262 
L 381.739025 182.918061 
L 383.389103 181.975977 
L 385.03918 182.704848 
L 386.689258 182.491125 
L 388.339335 179.538297 
L 389.989413 181.030798 
L 391.639491 181.991163 
L 393.289568 182.734117 
L 394.939646 182.397855 
L 396.589723 182.197073 
L 398.239801 183.357393 
L 399.889879 183.626537 
L 401.539956 182.966745 
L 403.190034 182.826046 
L 404.840111 181.762893 
L 406.490189 180.936826 
L 411.440422 179.769108 
L 413.090499 179.873637 
L 416.390654 181.398396 
L 418.040732 180.63907 
L 419.69081 181.260058 
L 419.69081 181.260058 
" clip-path="url(#p2b4a4635f1)" style="fill: none; stroke: #4169e1; stroke-width: 2; stroke-linecap: square"/>
   </g>
   <g id="line2d_28">
    <path d="M 99.472628 269.06446 
L 100.246102 267.517579 
L 101.019576 266.654476 
L 102.566523 262.85701 
L 103.339997 260.85097 
L 104.113471 257.924589 
L 108.754314 235.312649 
L 109.527788 230.225508 
L 111.074736 216.651032 
L 111.84821 210.361104 
L 113.395157 200.400115 
L 114.168631 196.70464 
L 118.036001 169.170667 
L 118.809475 161.677083 
L 119.582948 155.936935 
L 120.356422 148.731822 
L 124.223792 104.15573 
L 125.770739 90.255093 
L 126.544213 83.542413 
L 127.317687 77.893062 
L 128.091161 73.665107 
L 129.638109 66.2024 
L 130.411583 64.595448 
L 131.185056 63.832217 
L 131.95853 62.63153 
L 132.732004 61.688936 
L 134.278952 60.410513 
L 135.052426 60.085534 
L 136.599374 58.237864 
L 137.372847 56.773817 
L 138.146321 55.883844 
L 138.919795 55.760186 
L 139.693269 55.771068 
L 140.466743 54.656798 
L 141.240217 53.799554 
L 142.013691 53.270427 
L 142.787165 52.953892 
L 143.560638 52.356638 
L 145.107586 51.782533 
L 145.88106 51.11003 
L 146.654534 50.677834 
L 147.428008 50.413683 
L 148.201482 50.509227 
L 148.974955 49.816769 
L 149.748429 49.37076 
L 151.295377 48.790024 
L 152.068851 48.741575 
L 154.389273 48.979419 
L 155.162746 49.263204 
L 155.93622 49.809861 
L 156.709694 51.213306 
L 157.483168 51.871109 
L 159.030116 52.521713 
L 160.577064 52.785634 
L 161.350537 53.471499 
L 162.897485 53.725529 
L 163.670959 53.68704 
L 164.444433 53.289177 
L 165.217907 52.679666 
L 166.764854 50.477785 
L 167.538328 49.83876 
L 168.311802 49.425216 
L 169.85875 48.963186 
L 170.632224 48.217557 
L 171.405698 47.767741 
L 172.179172 47.501257 
L 173.726119 47.393778 
L 175.273067 47.376151 
L 176.820015 47.709192 
L 178.366962 47.880322 
L 179.91391 48.425458 
L 181.460858 48.793016 
L 182.234332 49.15288 
L 183.007806 50.094765 
L 183.78128 50.628872 
L 184.554753 51.023624 
L 187.648649 51.529043 
L 189.195597 51.132991 
L 189.969071 51.227796 
L 190.742544 51.205778 
L 191.516018 50.847523 
L 192.289492 49.865236 
L 193.062966 49.228495 
L 193.83644 49.192357 
L 194.609914 49.398535 
L 195.383388 49.845083 
L 196.156861 50.081879 
L 198.477283 49.948211 
L 200.797705 49.142192 
L 202.344652 48.911217 
L 203.118126 48.848343 
L 204.665074 47.060139 
L 205.438548 46.54565 
L 206.212022 46.600109 
L 206.985496 46.94706 
L 207.75897 47.108601 
L 210.852865 47.18265 
L 212.399813 47.130728 
L 213.94676 48.652944 
L 214.720234 49.131769 
L 215.493708 49.347817 
L 216.267182 49.095322 
L 217.040656 48.621945 
L 217.81413 48.345653 
L 219.361078 48.563764 
L 220.134551 48.599867 
L 220.908025 49.016126 
L 221.681499 49.262846 
L 222.454973 48.627481 
L 223.228447 48.659894 
L 224.001921 48.278279 
L 225.548869 47.933438 
L 227.86929 47.837971 
L 228.642764 47.474045 
L 229.416238 47.434818 
L 230.189712 47.720597 
L 231.736659 47.349345 
L 232.510133 47.227381 
L 233.283607 46.711425 
L 234.057081 46.364143 
L 238.697924 45.736684 
L 239.471398 45.251717 
L 241.018346 44.756005 
L 242.565294 44.560411 
L 243.338767 44.525057 
L 244.885715 44.285209 
L 248.753085 43.968644 
L 250.300032 44.370852 
L 251.073506 44.743749 
L 251.84698 44.950395 
L 254.167402 45.137483 
L 254.940876 45.747373 
L 255.714349 46.129923 
L 257.261297 46.461663 
L 258.034771 46.499664 
L 259.581719 46.117708 
L 260.355193 45.61185 
L 261.128666 45.326478 
L 262.675614 44.982484 
L 263.449088 45.350078 
L 264.996036 44.622995 
L 266.542984 44.271632 
L 268.863405 43.977141 
L 269.636879 44.57394 
L 270.410353 44.889843 
L 271.183827 45.52734 
L 271.957301 45.862221 
L 273.504248 45.363619 
L 276.598144 44.835437 
L 278.918565 44.648044 
L 279.692039 43.913594 
L 280.465513 43.461117 
L 281.238987 42.709895 
L 282.012461 42.241036 
L 283.559409 42.603089 
L 285.87983 42.849812 
L 288.200252 42.830471 
L 288.973726 42.789887 
L 289.7472 43.456801 
L 290.520674 43.819895 
L 291.294147 44.041817 
L 292.067621 44.125944 
L 292.841095 43.615143 
L 294.388043 43.064206 
L 297.481938 42.980977 
L 298.255412 43.468506 
L 304.443203 43.648677 
L 306.763625 43.383837 
L 307.537099 42.805058 
L 308.310573 41.99816 
L 309.084046 41.476925 
L 310.630994 40.819177 
L 312.177942 40.568541 
L 312.951416 41.022615 
L 313.72489 41.288249 
L 314.498363 41.404583 
L 315.271837 41.954751 
L 316.818785 42.500528 
L 318.365733 42.8053 
L 319.912681 42.939067 
L 321.459628 42.871882 
L 322.233102 42.290611 
L 323.78005 42.755047 
L 325.326998 42.134785 
L 326.873945 41.832434 
L 329.194367 41.667104 
L 332.288262 41.707569 
L 333.83521 41.555293 
L 342.343423 41.871799 
L 343.116897 41.318704 
L 344.663844 40.64778 
L 345.437318 40.740114 
L 346.210792 42.078734 
L 346.984266 42.809525 
L 347.75774 44.039232 
L 348.531214 44.791606 
L 349.304688 45.238218 
L 350.078161 45.531356 
L 353.945531 45.733284 
L 354.719005 45.828214 
L 355.492479 44.375001 
L 356.265952 43.456944 
L 357.039426 42.884822 
L 357.8129 41.746275 
L 358.586374 40.988742 
L 359.359848 40.501071 
L 360.133322 40.207188 
L 362.453743 39.852059 
L 363.227217 39.80355 
L 364.000691 40.457145 
L 364.774165 40.84315 
L 365.547639 41.088139 
L 366.321113 41.931631 
L 367.094587 42.423851 
L 368.641534 42.903654 
L 370.961956 43.013579 
L 372.508904 43.067896 
L 375.602799 42.59363 
L 376.376273 41.849472 
L 377.149747 41.385691 
L 378.696695 40.866422 
L 381.79059 40.604567 
L 382.564064 39.876359 
L 383.337538 39.471028 
L 384.884486 39.122995 
L 387.204907 39.004974 
L 387.978381 38.993365 
L 388.751855 39.434115 
L 389.525329 39.685011 
L 391.84575 39.92478 
L 396.486594 39.746369 
L 398.033541 39.831206 
L 398.807015 39.44045 
L 400.353963 39.078903 
L 403.447858 38.879873 
L 405.76828 38.753307 
L 407.315228 38.795134 
L 411.956071 38.42166 
L 414.276493 38.424534 
L 415.82344 38.538951 
L 418.143862 38.428899 
L 419.69081 38.486678 
L 419.69081 38.486678 
" clip-path="url(#p2b4a4635f1)" style="fill: none; stroke: #424e66; stroke-width: 2; stroke-linecap: square"/>
   </g>
   <g id="patch_3">
    <path d="M 83.461719 280.597187 
L 83.461719 26.877187 
" style="fill: none; stroke: #000000; stroke-width: 0.8; stroke-linejoin: miter; stroke-linecap: square"/>
   </g>
   <g id="patch_4">
    <path d="M 435.701719 280.597187 
L 435.701719 26.877187 
" style="fill: none; stroke: #000000; stroke-width: 0.8; stroke-linejoin: miter; stroke-linecap: square"/>
   </g>
   <g id="patch_5">
    <path d="M 83.461719 280.597187 
L 435.701719 280.597187 
" style="fill: none; stroke: #000000; stroke-width: 0.8; stroke-linejoin: miter; stroke-linecap: square"/>
   </g>
   <g id="patch_6">
    <path d="M 83.461719 26.877187 
L 435.701719 26.877187 
" style="fill: none; stroke: #000000; stroke-width: 0.8; stroke-linejoin: miter; stroke-linecap: square"/>
   </g>
   <g id="text_16">
    <!-- 奖励结果 -->
    <g transform="translate(237.976094 20.877187) scale(0.18 -0.18)">
     <defs>
      <path id="DejaVuSans-7ed3" d="M 319 -1131 
L 319 4513 
L 3519 4513 
L 3519 -1131 
L 319 -1131 
z
M 678 -775 
L 3163 -775 
L 3163 4153 
L 678 4153 
L 678 -775 
z
" transform="scale(0.015625)"/>
      <path id="DejaVuSans-679c" d="M 319 -1131 
L 319 4513 
L 3519 4513 
L 3519 -1131 
L 319 -1131 
z
M 678 -775 
L 3163 -775 
L 3163 4153 
L 678 4153 
L 678 -775 
z
" transform="scale(0.015625)"/>
     </defs>
     <use xlink:href="#DejaVuSans-5956"/>
     <use xlink:href="#DejaVuSans-52b1" x="60.009766"/>
     <use xlink:href="#DejaVuSans-7ed3" x="120.019531"/>
     <use xlink:href="#DejaVuSans-679c" x="180.029297"/>
    </g>
   </g>
   <g id="legend_1">
    <g id="patch_7">
     <path d="M 336.882187 273.097187 
L 425.201719 273.097187 
Q 428.201719 273.097187 428.201719 270.097187 
L 428.201719 183.528437 
Q 428.201719 180.528437 425.201719 180.528437 
L 336.882187 180.528437 
Q 333.882187 180.528437 333.882187 183.528437 
L 333.882187 270.097187 
Q 333.882187 273.097187 336.882187 273.097187 
z
" style="fill: #ffffff; opacity: 0.8; stroke: #cccccc; stroke-linejoin: miter"/>
    </g>
    <g id="line2d_29">
     <path d="M 339.882187 192.676094 
L 354.882187 192.676094 
L 369.882187 192.676094 
" style="fill: none; stroke: #008b8b; stroke-width: 2; stroke-linecap: square"/>
    </g>
    <g id="text_17">
     <!-- DQN -->
     <g transform="translate(381.882187 197.926094) scale(0.15 -0.15)">
      <defs>
       <path id="DejaVuSans-44" d="M 1259 4147 
L 1259 519 
L 2022 519 
Q 2988 519 3436 956 
Q 3884 1394 3884 2338 
Q 3884 3275 3436 3711 
Q 2988 4147 2022 4147 
L 1259 4147 
z
M 628 4666 
L 1925 4666 
Q 3281 4666 3915 4102 
Q 4550 3538 4550 2338 
Q 4550 1131 3912 565 
Q 3275 0 1925 0 
L 628 0 
L 628 4666 
z
" transform="scale(0.015625)"/>
       <path id="DejaVuSans-51" d="M 2522 4238 
Q 1834 4238 1429 3725 
Q 1025 3213 1025 2328 
Q 1025 1447 1429 934 
Q 1834 422 2522 422 
Q 3209 422 3611 934 
Q 4013 1447 4013 2328 
Q 4013 3213 3611 3725 
Q 3209 4238 2522 4238 
z
M 3406 84 
L 4238 -825 
L 3475 -825 
L 2784 -78 
Q 2681 -84 2626 -87 
Q 2572 -91 2522 -91 
Q 1538 -91 948 567 
Q 359 1225 359 2328 
Q 359 3434 948 4092 
Q 1538 4750 2522 4750 
Q 3503 4750 4090 4092 
Q 4678 3434 4678 2328 
Q 4678 1516 4351 937 
Q 4025 359 3406 84 
z
" transform="scale(0.015625)"/>
       <path id="DejaVuSans-4e" d="M 628 4666 
L 1478 4666 
L 3547 763 
L 3547 4666 
L 4159 4666 
L 4159 0 
L 3309 0 
L 1241 3903 
L 1241 0 
L 628 0 
L 628 4666 
z
" transform="scale(0.015625)"/>
      </defs>
      <use xlink:href="#DejaVuSans-44"/>
      <use xlink:href="#DejaVuSans-51" x="77.001953"/>
      <use xlink:href="#DejaVuSans-4e" x="155.712891"/>
     </g>
    </g>
    <g id="line2d_30">
     <path d="M 339.882187 214.693281 
L 354.882187 214.693281 
L 369.882187 214.693281 
" style="fill: none; stroke: #a52a2a; stroke-width: 2; stroke-linecap: square"/>
    </g>
    <g id="text_18">
     <!-- PPO -->
     <g transform="translate(381.882187 219.943281) scale(0.15 -0.15)">
      <defs>
       <path id="DejaVuSans-50" d="M 1259 4147 
L 1259 2394 
L 2053 2394 
Q 2494 2394 2734 2622 
Q 2975 2850 2975 3272 
Q 2975 3691 2734 3919 
Q 2494 4147 2053 4147 
L 1259 4147 
z
M 628 4666 
L 2053 4666 
Q 2838 4666 3239 4311 
Q 3641 3956 3641 3272 
Q 3641 2581 3239 2228 
Q 2838 1875 2053 1875 
L 1259 1875 
L 1259 0 
L 628 0 
L 628 4666 
z
" transform="scale(0.015625)"/>
       <path id="DejaVuSans-4f" d="M 2522 4238 
Q 1834 4238 1429 3725 
Q 1025 3213 1025 2328 
Q 1025 1447 1429 934 
Q 1834 422 2522 422 
Q 3209 422 3611 934 
Q 4013 1447 4013 2328 
Q 4013 3213 3611 3725 
Q 3209 4238 2522 4238 
z
M 2522 4750 
Q 3503 4750 4090 4092 
Q 4678 3434 4678 2328 
Q 4678 1225 4090 567 
Q 3503 -91 2522 -91 
Q 1538 -91 948 565 
Q 359 1222 359 2328 
Q 359 3434 948 4092 
Q 1538 4750 2522 4750 
z
" transform="scale(0.015625)"/>
      </defs>
      <use xlink:href="#DejaVuSans-50"/>
      <use xlink:href="#DejaVuSans-50" x="60.302734"/>
      <use xlink:href="#DejaVuSans-4f" x="120.605469"/>
     </g>
    </g>
    <g id="line2d_31">
     <path d="M 339.882187 236.710469 
L 354.882187 236.710469 
L 369.882187 236.710469 
" style="fill: none; stroke: #4169e1; stroke-width: 2; stroke-linecap: square"/>
    </g>
    <g id="text_19">
     <!-- RPPO -->
     <g transform="translate(381.882187 241.960469) scale(0.15 -0.15)">
      <defs>
       <path id="DejaVuSans-52" d="M 2841 2188 
Q 3044 2119 3236 1894 
Q 3428 1669 3622 1275 
L 4263 0 
L 3584 0 
L 2988 1197 
Q 2756 1666 2539 1819 
Q 2322 1972 1947 1972 
L 1259 1972 
L 1259 0 
L 628 0 
L 628 4666 
L 2053 4666 
Q 2853 4666 3247 4331 
Q 3641 3997 3641 3322 
Q 3641 2881 3436 2590 
Q 3231 2300 2841 2188 
z
M 1259 4147 
L 1259 2491 
L 2053 2491 
Q 2509 2491 2742 2702 
Q 2975 2913 2975 3322 
Q 2975 3731 2742 3939 
Q 2509 4147 2053 4147 
L 1259 4147 
z
" transform="scale(0.015625)"/>
      </defs>
      <use xlink:href="#DejaVuSans-52"/>
      <use xlink:href="#DejaVuSans-50" x="69.482422"/>
      <use xlink:href="#DejaVuSans-50" x="129.785156"/>
      <use xlink:href="#DejaVuSans-4f" x="190.087891"/>
     </g>
    </g>
    <g id="line2d_32">
     <path d="M 339.882187 258.727656 
L 354.882187 258.727656 
L 369.882187 258.727656 
" style="fill: none; stroke: #424e66; stroke-width: 2; stroke-linecap: square"/>
    </g>
    <g id="text_20">
     <!-- SAC -->
     <g transform="translate(381.882187 263.977656) scale(0.15 -0.15)">
      <defs>
       <path id="DejaVuSans-53" d="M 3425 4513 
L 3425 3897 
Q 3066 4069 2747 4153 
Q 2428 4238 2131 4238 
Q 1616 4238 1336 4038 
Q 1056 3838 1056 3469 
Q 1056 3159 1242 3001 
Q 1428 2844 1947 2747 
L 2328 2669 
Q 3034 2534 3370 2195 
Q 3706 1856 3706 1288 
Q 3706 609 3251 259 
Q 2797 -91 1919 -91 
Q 1588 -91 1214 -16 
Q 841 59 441 206 
L 441 856 
Q 825 641 1194 531 
Q 1563 422 1919 422 
Q 2459 422 2753 634 
Q 3047 847 3047 1241 
Q 3047 1584 2836 1778 
Q 2625 1972 2144 2069 
L 1759 2144 
Q 1053 2284 737 2584 
Q 422 2884 422 3419 
Q 422 4038 858 4394 
Q 1294 4750 2059 4750 
Q 2388 4750 2728 4690 
Q 3069 4631 3425 4513 
z
" transform="scale(0.015625)"/>
       <path id="DejaVuSans-41" d="M 2188 4044 
L 1331 1722 
L 3047 1722 
L 2188 4044 
z
M 1831 4666 
L 2547 4666 
L 4325 0 
L 3669 0 
L 3244 1197 
L 1141 1197 
L 716 0 
L 50 0 
L 1831 4666 
z
" transform="scale(0.015625)"/>
       <path id="DejaVuSans-43" d="M 4122 4306 
L 4122 3641 
Q 3803 3938 3442 4084 
Q 3081 4231 2675 4231 
Q 1875 4231 1450 3742 
Q 1025 3253 1025 2328 
Q 1025 1406 1450 917 
Q 1875 428 2675 428 
Q 3081 428 3442 575 
Q 3803 722 4122 1019 
L 4122 359 
Q 3791 134 3420 21 
Q 3050 -91 2638 -91 
Q 1578 -91 968 557 
Q 359 1206 359 2328 
Q 359 3453 968 4101 
Q 1578 4750 2638 4750 
Q 3056 4750 3426 4639 
Q 3797 4528 4122 4306 
z
" transform="scale(0.015625)"/>
      </defs>
      <use xlink:href="#DejaVuSans-53"/>
      <use xlink:href="#DejaVuSans-41" x="65.351562"/>
      <use xlink:href="#DejaVuSans-43" x="132.009766"/>
     </g>
    </g>
   </g>
  </g>
 </g>
 <defs>
  <clipPath id="p2b4a4635f1">
   <rect x="83.461719" y="26.877187" width="352.24" height="253.72"/>
  </clipPath>
 </defs>
</svg>
